<svg width="20" height="21" viewBox="0 0 20 21" fill="none" xmlns="http://www.w3.org/2000/svg">
<path fill-rule="evenodd" clip-rule="evenodd" d="M20 16.5V6.5H0V16.5H20ZM16 5.5H18V0.5H2V5.5H4V2.5H16V5.5ZM4 18.5V17.5H2V20.5H18V17.5H16V18.5H4Z" fill="#0F7EE6"/>
<path d="M3 14.5V8.5H5.26861C5.55429 8.5 5.80915 8.54585 6.03322 8.63754C6.25728 8.7235 6.44493 8.84957 6.59617 9.01576C6.75301 9.18195 6.87064 9.38252 6.94906 9.61748C7.02748 9.85244 7.06669 10.116 7.06669 10.4083C7.06669 10.7006 7.02748 10.9642 6.94906 11.1991C6.87064 11.4341 6.75301 11.6347 6.59617 11.8009C6.44493 11.967 6.25728 12.096 6.03322 12.1877C5.80915 12.2736 5.55429 12.3166 5.26861 12.3166H4.26874V14.5H3ZM4.26874 11.2765H4.94932C5.2462 11.2765 5.45066 11.2192 5.56269 11.1046C5.68032 10.99 5.73914 10.8009 5.73914 10.5372V10.2794C5.73914 10.0158 5.68032 9.82665 5.56269 9.71203C5.45066 9.59742 5.2462 9.54011 4.94932 9.54011H4.26874V11.2765Z" fill="white"/>
<path d="M7.93725 8.5H9.82775C10.6176 8.5 11.2029 8.75788 11.5838 9.27364C11.9647 9.7894 12.1552 10.5315 12.1552 11.5C12.1552 12.4685 11.9647 13.2106 11.5838 13.7264C11.2029 14.2421 10.6176 14.5 9.82775 14.5H7.93725V8.5ZM9.74373 13.4857C10.119 13.4857 10.3935 13.3625 10.5672 13.116C10.7408 12.8696 10.8276 12.5115 10.8276 12.0415V10.9499C10.8276 10.4857 10.7408 10.1304 10.5672 9.88395C10.3935 9.63754 10.119 9.51433 9.74373 9.51433H9.18078V13.4857H9.74373Z" fill="white"/>
<path d="M13.1098 14.5V8.5H17V9.55731H14.3701V10.9327H16.7227V11.99H14.3701V14.5H13.1098Z" fill="white"/>
</svg>
